{"title":"Naruto Shippuden Ep 351 Eng Sub 480p - {UkRs}","uid":9663029,"size":79451211,"categoryP":"video","categoryS":"other","magnet":"?xt=urn:btih:7dcf1cd5dedba48521349578986c58804213cf5e&amp;dn=Naruto+Shippuden+Ep+351+Eng+Sub+480p+-+%7BUkRs%7D&amp;tr=udp%3A%2F%2Ftracker.openbittorrent.com%3A80&amp;tr=udp%3A%2F%2Fopen.demonii.com%3A1337&amp;tr=udp%3A%2F%2Ftracker.coppersurfer.tk%3A6969&amp;tr=udp%3A%2F%2Fexodus.desync.com%3A6969","seeders":0,"leechers":1,"uploader":"UkRs","files":3,"time":1393327043,"description":" &lt;a href=&quot;http://img812.imageshack.us/img812/7083/rszbanner2.png&quot; rel=&quot;nofollow&quot; target=&quot;_NEW&quot;&gt;http://img812.imageshack.us/img812/7083/rszbanner2.png&lt;/a&gt;\nMediaInfo\nGeneral\nComplete name                            : Naruto Shippuden 351 480p - UkRs .mp4\nFormat                                   : MPEG-4\nFormat profile                           : Base Media\nCodec ID                                 : isom\nFile size                                : 75.2 MiB\nDuration                                 : 23mn 9s\nOverall bit rate mode                    : Variable\nOverall bit rate                         : 454 Kbps\nEncoded date                             : UTC 2014-02-20 11:08:02\nTagged date                              : UTC 2014-02-20 11:08:02\n\nVideo\nID                                       : 1\nFormat                                   : AVC\nFormat/Info                              : Advanced Video Codec\nFormat profile                           : &lt;a class=&quot;__cf_email__&quot; href=&quot;/cdn-cgi/l/email-protection&quot; data-cfemail=&quot;da92b3bdb29a96e9f4eb&quot;&gt;[email&amp;#160;protected]&lt;/a&gt;&lt;script cf-hash='f9e31' type=&quot;text/javascript&quot;&gt;\n/* &lt;![CDATA[ */!function(){try{var t=&quot;currentScript&quot;in document?document.currentScript:function(){for(var t=document.getElementsByTagName(&quot;script&quot;),e=t.length;e--;)if(t[e].getAttribute(&quot;cf-hash&quot;))return t[e]}();if(t&amp;&amp;t.previousSibling){var e,r,n,i,c=t.previousSibling,a=c.getAttribute(&quot;data-cfemail&quot;);if(a){for(e=&quot;&quot;,r=parseInt(a.substr(0,2),16),n=2;a.length-n;n+=2)i=parseInt(a.substr(n,2),16)^r,e+=String.fromCharCode(i);e=document.createTextNode(e),c.parentNode.replaceChild(e,c)}}}catch(u){}}();/* ]]&gt; */&lt;/script&gt;\nFormat settings, CABAC                   : Yes\nFormat settings, ReFrames                : 4 frames\nCodec ID                                 : avc1\nCodec ID/Info                            : Advanced Video Coding\nDuration                                 : 23mn 9s\nBit rate                                 : 322 Kbps\nMaximum bit rate                         : 2 453 Kbps\nWidth                                    : 1 280 pixels\nHeight                                   : 720 pixels\nDisplay aspect ratio                     : 16:9\nFrame rate mode                          : Constant\nFrame rate                               : 23.976 fps\nColor space                              : YUV\nChroma subsampling                       : 4:2:0\nBit depth                                : 8 bits\nScan type                                : Progressive\nBits/(Pixel*Frame)                       : 0.015\nStream size                              : 53.3 MiB (71%)\nTitle                                    : Naruto_Shippuden_Season_12_Episode_351.h264:fps=23.976 - Imported with GPAC 0.5.0-rev4065\nWriting library                          : x264 core 138 r2358 9e941d1\nEncoded date                             : UTC 2014-02-20 11:08:02\nTagged date                              : UTC 2014-02-20 11:08:03\n\nAudio\nID                                       : 2\nFormat                                   : AAC\nFormat/Info                              : Advanced Audio Codec\nFormat profile                           : LC\nCodec ID                                 : 40\nDuration                                 : 23mn 9s\nBit rate mode                            : Variable\nBit rate                                 : 128 Kbps\nMaximum bit rate                         : 138 Kbps\nChannel count                            : 2 channels\nChannel positions                        : Front: L R\nSampling rate                            : 44.1 KHz\nCompression mode                         : Lossy\nStream size                              : 21.2 MiB (28%)\nTitle                                    : Naruto_Shippuden_Season_12_Episode_351.aac:fps=23.976 - Imported with GPAC 0.5.0-rev4065\nEncoded date                             : UTC 2014-02-20 11:08:03\nTagged date                              : UTC 2014-02-20 11:08:03\n\nScreenShots &lt;a href=&quot;\nhttp://imageshack.com/a/img854/5218/vy6i.jpg&quot; rel=&quot;nofollow&quot; target=&quot;_NEW&quot;&gt;\nhttp://imageshack.com/a/img854/5218/vy6i.jpg&lt;/a&gt;\nPlzzzz Seed","torrent":{"xt":"urn:btih:7dcf1cd5dedba48521349578986c58804213cf5e","amp;dn":"Naruto+Shippuden+Ep+351+Eng+Sub+480p+-+%7BUkRs%7D","amp;tr":["udp%3A%2F%2Ftracker.openbittorrent.com%3A80","udp%3A%2F%2Fopen.demonii.com%3A1337","udp%3A%2F%2Ftracker.coppersurfer.tk%3A6969","udp%3A%2F%2Fexodus.desync.com%3A6969"],"infoHash":"7dcf1cd5dedba48521349578986c58804213cf5e","infoHashBuffer":{"type":"Buffer","data":[125,207,28,213,222,219,164,133,33,52,149,120,152,108,88,128,66,19,207,94]},"announce":[],"urlList":[]}}